/* XPM */
static char *doc_p[] = {
/* columns rows colors chars-per-pixel */
"16 16 4 1 ",
"  c black",
"O c navy",
"# c none",
": c white",
/* pixels */
"################",
"##         #####",
"## :::::::  ####",
"## :::::::   ###",
"## :::::::    ##",
"## ::OOOO:::: ##",
"## :::::::::: ##",
"## ::OOOOOO:: ##",
"## :::::::::: ##",
"## ::OOOOOO:: ##",
"## :::::::::: ##",
"## ::OOOOOO:: ##",
"## :::::::::: ##",
"## :::::::::: ##",
"##            ##",
"################"
};
