/* XPM */
static char *doclink_p[] = {
/* columns rows colors chars-per-pixel */
"16 16 16 1 ",
"  c black",
". c yellow",
"X c #808000",
"o c red",
"O c #800000",
"+ c green",
"@ c #008000",
"# c none",
"$ c #008080",
"% c blue",
"& c navy",
"* c magenta",
"= c #800080",
"- c gray75",
"; c #808080",
": c white",
/* pixels */
"################",
"##         #####",
"## :::::::  ####",
"## :::::%%%% ###",
"## ::::%:;&:- ##",
"## :::%:;&:-; ##",
"## ::%:;&%-;& ##",
"## :%:;&;;%&- ##",
"## %:;&;:-&:; ##",
"## %-&%:-&:;& ##",
"## %&:-&&:;&; ##",
"## %:-;&:;&;; ##",
"## :-;&-;&;;: ##",
"## -;&&&&;;:: ##",
"##            ##",
"################"
};
