/* XPM */
static char *folder_p[] = {
/* columns rows colors chars-per-pixel */
"16 16 4 1 ",
"  c black",
"# c none",
"* c yellow",
": c white",
/* pixels */
"################",
"################",
"##     #########",
"# *:*:* ########",
" *:*:*:*     ###",
" :*:*:*:*:*:* ##",
" *:*:*:*:*:*: ##",
" :*:           #",
" *: *:*:*:*:*:* ",
" :* :*:*:*:*:* #",
" * :*:*:*:*:*: #",
" : *:*:*:*:*: ##",
"  *:*:*:*:*:* ##",
"             ###",
"################",
"################"
};
