/* XPM */
static char *link_p[] = {
/* columns rows colors chars-per-pixel */
"20 22 8 1 ",
"  c white",
". c #FF3333",
"X c None",
"o c gray60",
"O c #660000",
"+ c gray20",
"@ c black",
"# c black",
/* pixels */
"+++++++++++++XXXXXXX",
"+          + +XXXXXX",
"+          +  +XXXXX",
"+          +   +XXXX",
"+          +    +XXX",
"+          @+@+@+@XX",
"+          @@@@@@@XX",
"+            oooo@XX",
"+             ooo@XX",
"+        O.     o@XX",
"+        O..    o@XX",
"+        O...   o@XX",
"+ O...........  o@XX",
"+ O............ o@XX",
"+ O...........O o@XX",
"+ OOOOOOOO...O  o@XX",
"+        O..O   o@XX",
"+        O.O    o@XX",
"+        OO     o@XX",
"+               o@XX",
"++oooooooooooooo+@XX",
"XX@@@@@@@@@@@@@@@@XX"
};
