/* XPM */
static char *link_p[] = {
/* columns rows colors chars-per-pixel */
"16 16 5 1 ",
"  c black",
"# c none",
"% c red",
"* c yellow",
": c white",
/* pixels */
"################",
"################",
"##     #########",
"# *:*:* ########",
" *:*:*:*     ###",
" :*:*:*:*:*:* ##",
" *:*:*:*:*:*: ##",
" :*:           #",
" *: *:*:*%::*:* ",
" :* :*:*:*%*:* #",
" * :*%%%%%%%*: #",
" : *:*:*:*%*: ##",
"  *:*:*:*%*:* ##",
"             ###",
"################",
"################"
};
