/* XPM */
static char *link_p[] = {
/* columns rows colors chars-per-pixel */
"20 18 8 1 ",
"  c #333366",
". c #6666CC",
"X c #C0C0C0",
"o c None",
"O c white",
"+ c black",
"@ c black",
"# c black",
/* pixels */
"oooooooooooooooooooo",
"oooooooooooooooooooo",
"oooooooooooooo  oooo",
"ooooooooooooo XO ooo",
"ooooooooo    XO. ooo",
"oooooooo XO XO. oooo",
"ooooooo XO XO. ooooo",
"oooooo XO  ..  ooooo",
"ooooo XO oo  X ooooo",
"oooo XO ooO XO ooooo",
"oooo O  oO XO oooooo",
"oooo  XX  XO ooooooo",
"oooo XO. XO oooooooo",
"ooo XO. XO ooooooooo",
"ooo O.    oooooooooo",
"ooo   oooooooooooooo",
"oooooooooooooooooooo",
"oooooooooooooooooooo"
};
