/* XPM */
static char *up_p[] = {
/* columns rows colors chars-per-pixel */
"20 22 8 1 ",
"  c white",
". c #FFCC99",
"X c None",
"o c #996633",
"O c black",
"+ c black",
"@ c black",
"# c black",
/* pixels */
"XXXXXXXXXXXXXXXXXXXX",
"XXXXXXXXXXXXXXXXXXXX",
"XXXXXXOOXXXXXXXXXXXX",
"XXXXXOooOXXXXXXXXXXX",
"XXXXXO.oOXXXXXXXXXXX",
"XXXXXO.oOXXXXXXXXXXX",
"XXXXXO.oOXXXXXXXXXXX",
"XXXXXO.oOOOXXXXXXXXX",
"XXXXXO.oO.oOOXXXXXXX",
"XXXXXO..O.o.oOOXXXXX",
"XXXXXO..O...o.oXXXXX",
"XXXXOO....o...oOOXXX",
"XXXO..O..o..o...oOXX",
"XXXO..o....o..o.oOXX",
"XXXO.........o..oOXX",
"XXXO...Oo......o.OXX",
"XXXO....OOo......OXX",
"XXXO......Oo.....OXX",
"XXXXO.....Oo....OXXX",
"XXXXXO.....o...OXXXX",
"XXXXXOO...O.OOOXXXXX",
"XXXXXXO......oOXXXXX"
};
