/* XPM */
static char *up_p[] = {
/* columns rows colors chars-per-pixel */
"16 16 4 1 ",
"  c black",
"X c #008000",
"& c green",
": c none",
/* pixels */
"::::::::::::::::",
"::::::  ::::::::",
"::::: X& :::::::",
":::: XXX& ::::::",
"::: XXXXX& :::::",
":: XXXXXXX& ::::",
"::    X&    ::::",
"::::: X& :::::::",
"::::: X& :::::::",
"::::: X& :::::::",
"::::: X&     :::",
"::::: XXXXX& :::",
"::::: XXXXX& :::",
":::::        :::",
"::::::::::::::::",
"::::::::::::::::",
};
